<?xml version="1.0" encoding="UTF-8" standalone="no"?>
<svg
   xmlns:dc="http://purl.org/dc/elements/1.1/"
   xmlns:cc="http://creativecommons.org/ns#"
   xmlns:rdf="http://www.w3.org/1999/02/22-rdf-syntax-ns#"
   xmlns:svg="http://www.w3.org/2000/svg"
   xmlns="http://www.w3.org/2000/svg"
   viewBox="0 0 793.70135 1122.52"
   height="1122.52"
   width="793.70135"
   xml:space="preserve"
   id="svg2"
   version="1.1"><metadata
     id="metadata8"><rdf:RDF><cc:Work
         rdf:about=""><dc:format>image/svg+xml</dc:format><dc:type
           rdf:resource="http://purl.org/dc/dcmitype/StillImage" /></cc:Work></rdf:RDF></metadata><defs
     id="defs6"><clipPath
       id="clipPath18"
       clipPathUnits="userSpaceOnUse"><path
         id="path16"
         d="M 0,841.89 H 595.276 V 0 H 0 Z" /></clipPath></defs><g
     transform="matrix(1.3333333,0,0,-1.3333333,0,1122.52)"
     id="g10"><g
       id="g12"><g
         clip-path="url(#clipPath18)"
         id="g14"><g
           transform="translate(551.8635,420.9449)"
           id="g20"><path
             id="path22"
             style="fill:#fffeff;fill-opacity:1;fill-rule:nonzero;stroke:none"
             d="m 0,0 c 0,-140.405 -113.821,-254.226 -254.226,-254.226 -140.404,0 -254.225,113.821 -254.225,254.226 0,140.405 113.821,254.226 254.225,254.226 C -113.821,254.226 0,140.405 0,0" /></g><g
           transform="translate(285.1984,433.3599)"
           id="g24"><path
             id="path26"
             style="fill:#100f0d;fill-opacity:1;fill-rule:nonzero;stroke:none"
             d="M 0,0 C 10.09,24.019 19.974,47.546 30.236,71.974 40.461,47.477 50.321,23.855 60.279,0 Z m 5.953,86.53 c -7.926,13.428 -32.155,-45.099 -39.311,-32.011 -5.202,9.513 -10.29,19.261 -13.858,29.454 -5.586,15.961 -3.95,32.097 4.157,46.86 8.443,15.376 22.03,23.432 39.818,22.541 12.484,-0.625 20.933,-7.957 26.357,-18.887 3.66,-7.376 5.528,-15.296 5.865,-23.481 0.12,-2.894 -0.358,-6.069 -1.491,-8.719 C 15.383,73.958 3.09,45.71 -9.158,17.443 -9.344,17.015 6.7,87.831 5.953,86.53 m -82.589,-198.698 c 20.564,0.167 41.13,-0.073 61.696,-0.063 1.502,0 4.247,0.586 4.3,1.115 0.291,2.875 0.026,5.832 -0.356,8.72 -0.05,0.38 -1.853,0.669 -2.865,0.757 -5.353,0.464 -10.777,0.47 -16.054,1.359 -6.408,1.079 -8.418,4.195 -6.799,10.464 1.308,5.064 3.205,10.01 5.225,14.849 5.294,12.682 10.794,25.278 16.228,37.901 0.37,0.861 0.874,1.666 1.42,2.695 13.902,-25.331 25.274,-51.346 26.785,-80.406 1.553,-29.876 -8.833,-44.932 -35.822,-56.348 -24.499,-10.363 -48.519,-6.838 -70.543,7.241 -22.759,14.548 -32.109,43.778 -23.386,69.283 3.704,10.83 19.082,24.877 35.066,21.888 5.855,-1.095 10.507,-4.011 13.83,-8.808 1.954,-2.82 3.557,-5.953 4.871,-9.13 2.365,-5.724 0.334,-9.172 -5.96,-10.112 -3.769,-0.561 -7.616,-0.693 -11.434,-0.804 -2.379,-0.069 -3.382,-0.883 -3.447,-3.395 -0.199,-7.684 -0.289,-7.267 7.245,-7.206 m 89.075,-139.295 c -132.022,0 -239.047,107.026 -239.047,239.048 0,132.022 107.025,239.048 239.047,239.048 132.023,0 239.048,-107.026 239.048,-239.048 0,-31.707 -6.188,-61.964 -17.398,-89.651 -0.223,0.017 -0.46,0.033 -0.724,0.045 -0.478,0.021 -85.655,0.575 -86.134,0.588 -6.544,0.176 -11.414,2.846 -14.255,9.024 -3.246,7.056 -7.025,13.876 -10.083,21.009 -19.174,44.722 -38.272,89.477 -57.265,134.276 -8.351,19.699 -16.396,39.527 -24.574,59.298 -5.586,13.503 -12.638,26.053 -23.678,35.947 -14.764,13.233 -35.025,15.905 -51.199,6.132 -22.246,-13.443 -33.995,-33.41 -34.852,-59.451 -0.616,-18.715 4.581,-36.197 12.646,-52.846 10.316,-21.298 20.969,-42.433 31.378,-63.685 0.65,-1.33 1.072,-3.362 0.529,-4.595 -8.523,-19.348 -17.221,-38.618 -26.107,-58.414 -2.557,2.33 -4.477,4.285 -6.602,5.982 -12.789,10.212 -26.858,12.884 -41.918,5.954 -12.174,-5.602 -20.911,-14.997 -26.495,-27.183 -6.525,-14.24 -6.769,-29.143 -4.406,-44.302 3.185,-20.44 13.156,-36.596 30.908,-47.325 22.307,-13.483 46.978,-15.7 71.841,-11.296 34.115,6.043 56.631,26.869 68.193,59.347 5.427,15.249 4.122,30.9 0.963,46.428 -4.441,21.827 -13.86,41.654 -24.797,60.851 -0.602,1.056 -1.146,2.145 -2.004,3.756 18.105,0 35.454,0.047 52.8,-0.115 1.059,-0.009 2.604,-1.451 3.076,-2.58 4.928,-11.799 9.742,-23.645 14.467,-35.527 3.928,-9.876 7.99,-19.716 11.431,-29.765 2.282,-6.665 -0.059,-9.641 -7.141,-10.235 -5.48,-0.46 -10.991,-0.547 -16.48,-0.922 -1.086,-0.074 -3.002,-0.613 -3.056,-1.101 -0.307,-2.793 -0.48,-5.698 0.048,-8.419 0.127,-0.654 3.091,-1.075 4.747,-1.064 22.489,0.14 44.978,0.404 67.467,0.554 3.221,0.021 6.28,-0.395 9.664,-0.512 0.934,0.023 66.681,-0.18 77.452,0.475 -37.711,-82.442 -120.907,-139.726 -217.49,-139.726 m 0,521.125 c -155.786,0 -282.076,-126.29 -282.076,-282.077 0,-155.787 126.29,-282.077 282.076,-282.077 155.787,0 282.077,126.29 282.077,282.077 0,155.787 -126.29,282.077 -282.077,282.077" /></g></g></g></g></svg>